<?xml version="1.0" standalone="no"?>
<!DOCTYPE svg PUBLIC "-//W3C//DTD SVG 20010904//EN"
 "http://www.w3.org/TR/2001/REC-SVG-20010904/DTD/svg10.dtd">
<svg version="1.0" xmlns="http://www.w3.org/2000/svg"
 width="260.000000pt" height="260.000000pt" viewBox="0 0 260.000000 260.000000"
 preserveAspectRatio="xMidYMid meet">
<metadata>
Created by potrace 1.11, written by Peter Selinger 2001-2013
</metadata>
<g transform="translate(0.000000,260.000000) scale(0.100000,-0.100000)"
fill="#000000" stroke="none">
<path d="M1746 1846 c-50 -14 -68 -30 -61 -56 2 -8 6 -33 9 -55 4 -22 8 -51
11 -65 6 -33 12 -78 35 -245 34 -245 44 -319 71 -480 11 -71 22 -136 23 -143
1 -8 9 -18 17 -23 17 -11 119 -12 136 -1 7 4 39 88 72 187 33 99 61 176 62
170 4 -48 99 -334 116 -351 16 -15 119 -20 141 -6 13 9 17 24 27 97 4 22 8 51
10 65 10 64 17 118 20 145 2 17 6 48 10 70 18 120 34 236 40 280 3 28 8 62 10
78 3 15 7 39 9 55 12 77 19 119 22 137 14 76 15 112 3 121 -19 14 -133 36
-152 28 -15 -5 -27 -49 -42 -144 -3 -19 -7 -46 -10 -60 -7 -37 -13 -79 -21
-135 -3 -27 -8 -59 -10 -69 -2 -10 -6 -58 -10 -105 -4 -47 -8 -87 -9 -89 -4
-4 -19 69 -45 210 -6 32 -13 70 -16 85 -7 39 -20 43 -104 37 -75 -6 -91 -15
-96 -54 -12 -103 -61 -324 -64 -290 -2 14 -4 34 -5 45 -2 11 -6 56 -9 100 -4
44 -9 87 -11 95 -2 8 -7 35 -10 60 -3 25 -10 70 -15 100 -5 30 -12 71 -15 90
-20 123 -23 130 -64 129 -14 0 -48 -6 -75 -13z"/>
<path d="M468 1845 c-2 -2 -20 -5 -41 -8 -47 -6 -152 -57 -189 -91 -170 -160
-218 -539 -96 -768 78 -147 209 -216 388 -206 124 7 212 59 288 170 37 53 39
69 15 90 -27 22 -101 58 -122 58 -11 0 -30 -18 -46 -44 -34 -54 -90 -86 -160
-93 -116 -11 -195 54 -231 192 -19 69 -12 264 10 330 39 113 124 188 211 187
59 -2 95 -23 134 -83 34 -52 66 -64 91 -34 7 8 18 15 25 15 7 0 27 14 45 30
32 30 32 30 15 58 -63 99 -132 160 -205 183 -33 10 -126 20 -132 14z"/>
<path d="M962 1828 c-17 -17 -17 -1029 0 -1046 14 -14 132 -16 157 -2 17 9 19
27 17 250 -1 132 1 244 4 249 6 10 268 8 290 -2 8 -4 21 -3 29 2 15 10 51 138
43 158 -8 23 -76 33 -224 33 l-148 0 0 94 0 94 208 -2 c114 -2 223 -6 243 -11
l36 -7 28 70 c50 127 35 132 -372 132 -219 0 -302 -3 -311 -12z"/>
</g>
</svg>
